<?xml version="1.0" standalone="no"?>
<!DOCTYPE svg PUBLIC "-//W3C//DTD SVG 20010904//EN"
 "http://www.w3.org/TR/2001/REC-SVG-20010904/DTD/svg10.dtd">
<svg version="1.0" xmlns="http://www.w3.org/2000/svg"
 width="600.000000pt" height="374.000000pt" viewBox="0 0 600.000000 374.000000"
 preserveAspectRatio="xMidYMid meet">

<g transform="translate(0.000000,374.000000) scale(0.100000,-0.100000)"
fill="#000000" stroke="none">
<path d="M2794 3220 c-5 -5 -115 -41 -244 -80 -296 -90 -843 -257 -1019 -312
-73 -23 -129 -44 -123 -46 20 -6 824 214 1256 345 97 29 120 33 127 22 5 -8 6
-98 4 -201 -4 -163 -3 -188 10 -188 12 0 15 19 16 108 1 176 15 226 80 274 40
30 126 35 182 10 73 -32 89 -74 96 -250 9 -216 26 -184 29 56 3 225 -2 213 74
188 55 -19 498 -145 983 -281 99 -27 284 -74 358 -89 9 -2 15 0 11 5 -3 5 -12
9 -21 9 -9 0 -42 9 -72 19 -31 11 -114 37 -186 59 -71 22 -183 57 -249 77 -65
20 -157 48 -205 62 -47 14 -138 41 -201 60 -63 19 -190 56 -281 82 -91 27
-180 56 -197 65 -25 13 -66 16 -225 16 -111 0 -197 -4 -203 -10z"/>
<path d="M2715 3055 c-5 -2 -77 -22 -160 -44 -82 -22 -350 -95 -595 -162 -245
-66 -503 -135 -573 -154 -71 -18 -130 -34 -132 -36 -7 -8 -13 -185 -8 -236 10
-90 23 -58 23 53 0 114 12 151 55 174 55 30 136 6 155 -46 6 -14 10 -57 10
-95 0 -53 3 -69 14 -69 11 0 15 24 18 116 l3 116 33 29 c25 23 42 29 76 29 38
0 48 -5 75 -35 29 -33 31 -41 31 -110 0 -60 3 -75 15 -75 12 0 15 19 15 109
l0 109 32 31 c26 26 40 31 77 31 81 -1 111 -42 111 -149 0 -39 4 -71 9 -71 14
0 17 20 15 95 -5 135 28 189 117 189 41 0 55 -5 77 -27 24 -25 27 -36 31 -113
2 -58 7 -84 15 -81 7 2 13 45 16 120 6 139 17 157 98 165 44 4 53 1 83 -26 32
-29 34 -34 37 -112 3 -55 8 -80 16 -77 7 2 11 38 11 103 0 114 12 143 70 171
29 14 41 14 74 5 52 -16 69 -46 75 -132 8 -123 16 -90 16 63 0 148 -1 153 -35
142z"/>
<path d="M3250 2911 c0 -94 4 -151 10 -151 6 0 10 30 10 70 0 44 6 82 15 100
17 32 61 60 95 60 34 0 78 -28 95 -60 10 -20 15 -59 15 -129 0 -55 4 -102 9
-105 13 -8 18 11 20 84 3 74 22 114 63 131 39 16 97 4 127 -26 24 -24 26 -33
29 -140 3 -91 7 -115 18 -115 11 0 14 18 14 83 0 73 3 85 24 108 32 34 84 44
130 25 52 -22 66 -58 66 -176 0 -60 4 -100 10 -100 6 0 10 12 11 28 1 15 2 34
3 42 2 8 3 32 4 53 3 57 46 97 104 97 87 0 118 -50 118 -189 0 -49 4 -92 9
-95 4 -3 11 30 14 73 6 90 16 115 57 136 37 19 73 19 110 0 47 -24 62 -65 60
-164 -2 -113 -2 -121 10 -121 6 0 10 29 10 68 0 81 21 128 69 156 31 18 37 18
74 5 62 -22 74 -48 81 -169 3 -58 6 -108 6 -112 0 -5 5 -8 10 -8 7 0 10 50 8
142 l-3 141 -55 18 c-30 9 -127 36 -215 59 -200 52 -340 90 -520 140 -142 40
-308 84 -380 101 -22 6 -92 25 -155 43 -63 19 -130 37 -147 41 l-33 7 0 -151z"/>
<path d="M2655 2681 c-60 -16 -218 -57 -350 -91 -251 -64 -782 -206 -825 -220
-22 -7 -23 -8 -4 -9 40 -2 316 62 1022 235 l303 74 204 0 204 0 223 -54 c351
-86 500 -122 688 -166 96 -22 202 -47 235 -55 152 -36 206 -46 227 -43 14 2
-12 12 -62 25 -126 33 -292 77 -405 108 -55 14 -277 71 -493 126 l-392 99
-233 0 c-222 -1 -237 -2 -342 -29z"/>
<path d="M2690 2599 c-19 -6 -136 -36 -260 -68 -124 -32 -373 -97 -555 -144
-181 -48 -400 -104 -485 -125 l-155 -40 -3 -56 -3 -56 345 0 345 0 39 53 c71
95 149 155 302 232 542 272 1406 184 1735 -177 28 -31 60 -67 72 -82 l21 -26
342 0 341 0 -3 57 -3 57 -265 67 c-146 38 -299 77 -340 88 -41 11 -147 38
-235 61 -88 23 -200 52 -250 65 -49 13 -161 42 -248 64 l-158 41 -272 -1
c-150 0 -288 -5 -307 -10z"/>
<path d="M1428 2353 c7 -3 16 -2 19 1 4 3 -2 6 -13 5 -11 0 -14 -3 -6 -6z"/>
<path d="M541 1623 c-49 -26 -76 -66 -75 -113 2 -66 30 -100 128 -152 99 -53
115 -69 116 -116 0 -53 -37 -82 -104 -82 -49 0 -57 3 -75 29 -12 16 -21 36
-21 44 0 23 -18 31 -36 16 -10 -8 -14 -25 -12 -48 3 -31 9 -39 48 -58 78 -40
179 -25 232 35 27 32 30 40 26 89 -6 66 -29 93 -118 135 -89 42 -120 72 -120
118 0 58 22 80 81 80 54 0 89 -24 89 -60 0 -23 22 -26 40 -6 18 22 8 57 -22
79 -39 29 -132 34 -177 10z"/>
<path d="M830 1580 c0 -72 20 -82 39 -20 l12 40 59 0 60 0 0 -209 c0 -227 -3
-241 -56 -241 -15 0 -24 -6 -24 -15 0 -13 17 -15 110 -13 112 3 143 16 77 31
-24 6 -37 16 -41 30 -3 12 -6 111 -6 220 l0 197 60 0 c63 0 80 -13 80 -59 0
-30 28 -26 36 4 3 14 3 41 0 60 l-7 35 -199 0 -200 0 0 -60z"/>
<path d="M1414 1616 c-28 -13 -60 -36 -72 -51 -50 -63 -66 -195 -36 -294 57
-194 338 -203 411 -13 22 56 24 179 4 235 -43 125 -183 181 -307 123z m177
-33 c42 -25 62 -76 67 -172 9 -173 -35 -251 -143 -251 -104 0 -148 70 -147
233 0 100 22 160 69 189 37 23 116 23 154 1z"/>
<path d="M1802 1628 c3 -7 18 -16 35 -20 24 -6 32 -15 37 -39 10 -51 7 -369
-4 -389 -5 -10 -24 -23 -42 -29 -53 -19 -20 -32 72 -29 88 3 118 20 55 32 -19
4 -36 12 -37 19 -6 45 -2 357 4 355 5 -2 66 -93 136 -203 106 -166 131 -200
151 -200 l23 0 -1 185 c-1 102 2 209 5 238 6 47 9 53 35 60 56 14 30 27 -56
27 -88 0 -112 -11 -60 -28 17 -6 33 -15 37 -21 11 -16 10 -336 -1 -336 -4 0
-64 88 -132 195 l-124 195 -68 0 c-49 0 -68 -3 -65 -12z"/>
<path d="M2345 1630 c-3 -6 2 -13 12 -16 10 -3 28 -10 41 -15 l22 -9 -2 -211
-3 -212 -32 -11 c-69 -23 -33 -31 157 -34 l190 -2 0 29 c0 15 3 43 6 60 6 27
4 31 -15 31 -12 0 -21 -6 -21 -15 0 -8 -5 -26 -12 -40 -11 -24 -14 -25 -105
-25 l-93 0 0 100 0 100 85 0 c78 0 85 2 85 20 0 18 -7 20 -85 20 l-85 0 0 100
0 100 79 0 c84 0 94 -5 106 -53 4 -15 13 -27 21 -27 10 0 14 15 14 60 l0 60
-179 0 c-110 0 -182 -4 -186 -10z"/>
<path d="M2980 1628 c0 -8 15 -18 33 -23 l32 -10 3 -207 c2 -178 0 -208 -14
-222 -8 -9 -24 -16 -35 -16 -10 0 -19 -7 -19 -15 0 -13 21 -15 128 -15 145 0
194 10 233 49 57 58 46 164 -21 209 -39 26 -49 42 -28 42 22 0 57 42 64 76 8
44 -18 99 -58 121 -44 24 -318 33 -318 11z m280 -48 c29 -29 28 -106 -2 -137
-18 -19 -32 -23 -80 -23 l-58 0 0 90 0 90 60 0 c47 0 64 -4 80 -20z m16 -221
c12 -14 19 -40 22 -82 3 -52 0 -66 -18 -89 -20 -26 -27 -28 -91 -28 l-69 0 0
110 0 110 68 0 c57 0 72 -4 88 -21z"/>
<path d="M3442 1629 c2 -7 18 -17 35 -21 40 -10 43 -28 43 -228 0 -198 -3
-215 -42 -226 -59 -17 -33 -29 70 -32 83 -2 102 0 102 12 0 7 -12 17 -27 21
-39 9 -43 20 -43 108 l0 77 35 0 c32 0 37 -5 86 -84 65 -107 86 -127 142 -133
55 -6 69 10 27 32 -26 14 -150 180 -150 202 0 5 16 17 34 27 85 46 87 181 3
231 -27 17 -55 21 -176 23 -114 3 -142 1 -139 -9z m278 -49 c40 -40 39 -133
-1 -176 -19 -20 -32 -24 -81 -24 l-58 0 0 110 0 110 60 0 c46 0 64 -4 80 -20z"/>
<path d="M3916 1631 c-7 -11 -1 -16 37 -25 l27 -6 0 -220 0 -219 -32 -9 c-17
-4 -33 -13 -36 -20 -3 -10 22 -12 105 -10 107 3 136 15 75 30 -19 5 -32 16
-36 30 -8 30 -8 366 0 396 4 14 18 25 38 30 17 5 31 12 31 18 0 12 -202 17
-209 5z"/>
<path d="M4172 1628 c3 -7 19 -16 36 -20 l32 -9 0 -218 0 -218 -31 -9 c-59
-17 -30 -29 83 -32 152 -4 208 8 263 61 50 49 69 101 69 197 0 36 -6 85 -13
110 -16 56 -81 121 -138 138 -55 16 -306 17 -301 0z m318 -66 c48 -47 64 -103
58 -203 -8 -140 -60 -199 -175 -199 l-63 0 0 220 1 220 71 0 c68 0 72 -1 108
-38z"/>
<path d="M4856 1620 c-103 -40 -151 -128 -144 -260 7 -108 43 -171 123 -212
51 -26 153 -33 220 -15 l50 13 3 65 c3 89 8 104 37 117 45 21 17 32 -76 32
-66 0 -89 -3 -89 -13 0 -7 14 -18 30 -24 30 -11 30 -12 30 -87 l0 -76 -69 0
c-108 0 -162 49 -181 164 -10 63 2 162 26 208 22 43 70 68 129 68 60 0 92 -19
103 -62 10 -40 25 -45 51 -19 26 26 26 42 1 74 -39 49 -155 61 -244 27z"/>
<path d="M5202 1628 c3 -7 18 -17 35 -22 39 -11 41 -19 43 -219 1 -200 -3
-222 -42 -233 -68 -20 -23 -29 162 -32 l190 -2 0 60 c0 45 -4 60 -14 60 -8 0
-17 -12 -21 -27 -12 -49 -21 -53 -121 -53 l-94 0 0 100 0 99 87 3 c74 3 88 6
91 21 3 15 -6 17 -87 17 l-91 0 0 100 0 101 88 -3 87 -3 11 -35 c6 -19 19 -37
28 -38 15 -3 17 5 14 55 l-3 58 -183 3 c-144 2 -183 0 -180 -10z"/>
<path d="M1167 682 c-10 -10 -17 -28 -17 -40 0 -19 11 -30 79 -81 18 -13 22
-23 17 -39 -9 -27 -51 -30 -78 -5 -25 22 -36 8 -13 -17 26 -29 76 -26 106 6
22 23 22 27 9 52 -9 14 -32 35 -53 46 -31 16 -37 25 -35 45 4 32 36 41 55 15
9 -13 16 -15 24 -7 15 15 -16 43 -50 43 -15 0 -35 -8 -44 -18z"/>
<path d="M1367 693 c-10 -10 -8 -43 2 -43 5 0 11 7 15 15 3 8 16 15 28 15 23
0 23 -3 22 -85 -1 -72 -4 -88 -20 -100 -17 -13 -15 -14 29 -15 46 0 62 12 32
24 -12 4 -15 24 -15 91 0 84 0 85 25 85 13 0 28 -7 33 -16 8 -15 10 -15 16 1
3 9 4 21 0 26 -6 10 -157 12 -167 2z"/>
<path d="M1623 686 c24 -18 26 -186 2 -186 -8 0 -15 -4 -15 -10 0 -5 21 -10
48 -10 41 1 45 2 30 14 -23 17 -25 86 -4 86 8 0 27 -22 43 -50 22 -38 34 -50
52 -50 l24 0 -20 23 c-11 12 -30 39 -42 60 -19 31 -20 37 -7 37 9 0 21 11 28
25 9 19 8 29 -6 50 -15 23 -23 25 -84 25 -58 -1 -65 -2 -49 -14z m111 -28 c15
-25 -3 -52 -38 -56 -24 -3 -26 -1 -26 38 0 39 2 41 26 38 15 -2 32 -11 38 -20z"/>
<path d="M1905 675 c-20 -19 -25 -34 -25 -75 0 -82 29 -119 91 -120 51 0 81
35 87 103 4 46 1 57 -23 85 -35 42 -93 45 -130 7z m109 -17 c9 -12 16 -43 16
-68 0 -57 -22 -90 -59 -90 -42 0 -65 32 -65 90 0 34 6 56 19 70 24 27 70 26
89 -2z"/>
<path d="M2164 685 c16 -12 19 -26 17 -97 -1 -46 -6 -84 -12 -86 -21 -8 -7
-22 21 -22 29 0 42 14 19 22 -6 2 -9 31 -7 73 l3 70 54 -82 c29 -46 58 -83 62
-83 5 0 9 43 9 95 0 76 3 97 15 101 28 11 15 24 -25 24 -41 0 -54 -14 -21 -23
16 -4 19 -14 20 -72 0 -80 -6 -78 -71 25 -38 61 -47 69 -73 69 -28 0 -29 -1
-11 -14z"/>
<path d="M2483 676 c-25 -22 -28 -31 -28 -86 0 -55 3 -64 28 -86 21 -17 40
-24 72 -24 48 0 57 9 68 68 6 31 6 32 -30 32 -35 0 -36 -1 -19 -19 28 -31 17
-55 -26 -59 -28 -2 -40 2 -52 20 -20 29 -21 107 0 136 18 26 81 31 90 7 6 -15
34 -21 34 -7 -2 46 -91 58 -137 18z"/>
<path d="M2863 686 c14 -11 17 -29 17 -96 0 -67 -3 -85 -17 -96 -16 -12 -8
-13 54 -14 67 0 74 2 90 26 16 24 16 28 -1 59 -15 28 -16 36 -4 54 11 18 11
25 -2 49 -15 25 -21 27 -85 29 -61 3 -68 1 -52 -11z m101 -12 c19 -7 21 -45 4
-62 -7 -7 -22 -12 -35 -12 -20 0 -23 5 -23 40 0 41 13 50 54 34z m21 -114 c12
-38 -3 -60 -41 -60 -33 0 -34 1 -34 40 0 39 1 40 34 40 26 0 36 -5 41 -20z"/>
<path d="M3100 690 c0 -5 4 -10 9 -10 5 0 23 -24 40 -54 33 -58 41 -113 16
-122 -28 -11 -15 -24 25 -24 40 0 53 13 25 24 -24 9 -15 64 19 121 17 28 37
55 46 62 12 10 7 12 -30 12 -40 0 -43 -1 -27 -13 17 -13 17 -15 1 -50 -10 -20
-21 -36 -26 -36 -4 0 -15 14 -24 32 -13 25 -14 36 -5 50 10 16 7 18 -29 18
-22 0 -40 -4 -40 -10z"/>
<path d="M3500 691 c0 -5 7 -11 15 -15 12 -4 15 -24 15 -86 0 -62 -3 -82 -15
-86 -33 -13 -11 -24 49 -24 54 0 67 4 89 25 43 44 41 142 -5 177 -25 19 -148
26 -148 9z m134 -27 c24 -24 22 -126 -3 -148 -22 -20 -77 -18 -75 2 1 6 2 46
3 87 l1 75 29 0 c16 0 37 -7 45 -16z"/>
<path d="M3783 686 c14 -11 17 -29 17 -96 0 -67 -3 -85 -17 -96 -16 -12 -6
-14 67 -11 80 2 85 3 88 25 4 25 -10 29 -28 7 -7 -8 -28 -15 -46 -15 -33 0
-34 1 -34 40 0 39 1 40 35 40 19 0 35 5 35 10 0 6 -16 10 -35 10 -34 0 -35 1
-35 40 0 39 1 40 35 40 22 0 38 -6 44 -17 9 -15 10 -14 11 10 l0 27 -77 0
c-67 -1 -76 -3 -60 -14z"/>
<path d="M4047 682 c-10 -10 -17 -28 -17 -39 0 -20 38 -63 57 -63 20 0 45 -38
38 -59 -8 -26 -50 -28 -77 -4 -24 22 -31 12 -12 -16 23 -32 80 -26 107 11 19
25 19 28 4 52 -9 14 -33 32 -52 42 -28 13 -35 22 -35 45 0 24 4 29 24 29 13 0
30 -10 38 -22 13 -19 15 -19 21 -5 15 40 -64 64 -96 29z"/>
<path d="M4250 691 c0 -5 7 -11 15 -15 12 -4 15 -24 15 -86 0 -62 -3 -82 -15
-86 -28 -11 -15 -24 25 -24 40 0 53 13 25 24 -12 4 -15 22 -14 87 1 71 4 82
20 86 35 10 19 23 -26 23 -25 0 -45 -4 -45 -9z"/>
<path d="M4462 677 c-31 -33 -43 -79 -31 -122 15 -53 44 -75 101 -75 44 0 48
2 53 28 4 15 10 35 16 44 14 26 12 28 -26 28 -36 0 -47 -13 -19 -24 9 -3 14
-15 12 -28 -4 -30 -61 -38 -89 -12 -27 24 -27 124 -1 147 24 22 71 22 88 0 16
-22 32 -8 18 15 -7 11 -27 18 -55 20 -36 2 -49 -2 -67 -21z"/>
<path d="M4703 686 c14 -11 17 -29 17 -96 0 -67 -3 -85 -17 -96 -16 -12 -14
-13 20 -14 34 0 51 14 26 22 -6 2 -9 31 -7 73 l3 70 54 -82 c29 -46 58 -83 62
-83 5 0 9 43 9 95 0 76 3 97 15 101 28 11 15 24 -25 24 -42 0 -54 -14 -20 -23
17 -4 20 -14 20 -72 0 -60 -2 -66 -16 -55 -8 8 -33 44 -56 82 -36 61 -43 68
-72 68 -28 -1 -29 -2 -13 -14z"/>
</g>
</svg>
